<svg width="18" height="16" viewBox="0 0 18 16" fill="none" xmlns="http://www.w3.org/2000/svg">
<path d="M1.32472 0.942858L4.4446 0.307892C5.17477 0.156709 5.90495 0.48931 6.17047 1.09404L7.63084 4.17815C7.89636 4.72241 7.73041 5.3876 7.19937 5.78068L5.87177 6.77848C6.80109 8.35078 8.26145 9.65094 9.98733 10.5278L11.0826 9.31834C11.5141 8.83456 12.2443 8.68337 12.8417 8.92526L16.2271 10.2254C16.8908 10.4976 17.256 11.1628 17.0901 11.828L16.393 14.6702C16.2271 15.3052 15.5965 15.7284 14.8995 15.7284C6.76789 15.7284 0.129883 9.74164 0.129883 2.3035C0.129883 1.66853 0.627733 1.09404 1.32472 0.942858ZM14.8331 14.2771L15.5301 11.5558L12.2774 10.2859L10.4188 12.342C7.13298 10.9209 5.44029 9.37881 3.88036 6.38541L6.13729 4.69217L4.7433 1.729L1.72301 2.36396C1.7562 8.92526 7.63084 14.2469 14.8331 14.2771Z" fill="#ABABAB"/>
</svg>
