<svg width="13" height="8" viewBox="0 0 13 8" fill="none" xmlns="http://www.w3.org/2000/svg">
<path d="M12.0669 4.46667C12.3246 4.46667 12.5336 4.25773 12.5336 4C12.5336 3.74227 12.3246 3.53333 12.0669 3.53333V4.46667ZM0.536912 3.67002C0.354667 3.85226 0.354667 4.14774 0.536912 4.32998L3.50676 7.29983C3.689 7.48208 3.98448 7.48208 4.16673 7.29983C4.34897 7.11759 4.34897 6.82211 4.16673 6.63987L1.52686 4L4.16673 1.36013C4.34897 1.17789 4.34897 0.882413 4.16673 0.700168C3.98448 0.517924 3.689 0.517924 3.50676 0.700168L0.536912 3.67002ZM12.0669 3.53333L0.866895 3.53333V4.46667L12.0669 4.46667V3.53333Z" fill="#302C23"/>
</svg>
