<svg width="68" height="59" viewBox="0 0 68 59" fill="none" xmlns="http://www.w3.org/2000/svg">
<path fill-rule="evenodd" clip-rule="evenodd" d="M43.991 11.4449H25.0247V0H51L57.6076 11.4447L43.991 11.4449ZM45.0932 13.4447L54.8459 28.9114L55.1811 29.4431L54.8474 29.9758L44 47.2874V47.4449V58.8897H51L68 29.4449L58.7623 13.4447H45.0932ZM23.9819 47.4449H42V58.8897H17L10.3932 47.4464H23.0008L23.002 47.4483L23.0051 47.4464H23.9819V47.4449ZM21.7655 45.4464L12.1492 29.8775L11.8237 29.3505L12.1506 28.8243L22.9437 11.4538L23 11.4888V11.4449H23.0247V0H17L0 29.4449L9.2385 45.4464H21.7655ZM23 43.6392V15.1527L14.1763 29.3536L23 43.6392ZM52.8189 29.4465L44 43.5207V15.4607L52.8189 29.4465Z" fill="url(#paint0_linear_498_1356)"/>
<defs>
<linearGradient id="paint0_linear_498_1356" x1="9" y1="14.9448" x2="59" y2="42.4448" gradientUnits="userSpaceOnUse">
<stop stop-color="#FBD064"/>
<stop offset="1" stop-color="#F98213"/>
</linearGradient>
</defs>
</svg>
