<svg width="113" height="32" viewBox="0 0 113 32" fill="none" xmlns="http://www.w3.org/2000/svg">
<path d="M25.312 24H15.293V23.3145C17.4141 23.2441 18.475 22.5117 18.475 21.1172V3.80266C18.475 2.33786 17.4141 1.60546 15.293 1.60546H10.7227C8.6133 1.60546 7.5586 2.33786 7.5586 3.80266V21.1172C7.5586 22.5117 8.6133 23.2441 10.7227 23.3145V24H0.720703V23.3145C2.8301 23.2441 3.8848 22.5117 3.8848 21.1172V3.04686C3.8848 1.65226 2.8301 0.919862 0.720703 0.849562V0.164062H25.312V0.849562C23.203 0.919862 22.148 1.65226 22.148 3.04686V21.1172C22.148 22.5117 23.203 23.2441 25.312 23.3145V24ZM42.943 15.2812C42.943 17.7891 42.24 19.8984 40.834 21.6094C39.334 23.4375 37.359 24.3516 34.91 24.3516C32.578 24.3516 30.68 23.5254 29.215 21.873C27.797 20.291 27.088 18.3223 27.088 15.9668C27.088 13.541 27.779 11.543 29.162 9.97266C30.604 8.33196 32.52 7.51166 34.91 7.51166C37.219 7.51166 39.129 8.22656 40.641 9.65616C42.176 11.1211 42.943 12.9961 42.943 15.2812ZM39.621 17.1621C39.621 15.0527 39.275 13.2246 38.584 11.6777C37.67 9.61516 36.287 8.58396 34.436 8.58396C32.971 8.58396 31.893 9.25196 31.201 10.5879C30.674 11.6191 30.41 12.9434 30.41 14.5605C30.41 16.6465 30.744 18.4863 31.412 20.0801C32.314 22.2129 33.674 23.2793 35.49 23.2793C36.92 23.2793 38.004 22.582 38.742 21.1875C39.328 20.0742 39.621 18.7324 39.621 17.1621ZM44.086 31.3125C45.047 31.2305 45.703 31.0547 46.055 30.7852C46.5 30.4453 46.723 29.8301 46.723 28.9395V12.2227C46.723 11.2734 46.682 10.6875 46.6 10.4648C46.412 9.96086 45.938 9.70896 45.176 9.70896H44.086V9.19916L49.781 7.51166V10.1836C51.152 8.40226 52.881 7.51166 54.967 7.51166C56.959 7.51166 58.494 8.30856 59.572 9.90226C60.486 11.2734 60.943 13.0078 60.943 15.1055C60.943 17.5078 60.281 19.6055 58.957 21.3984C57.504 23.3672 55.617 24.3516 53.297 24.3516C51.996 24.3516 50.824 23.8125 49.781 22.7344V28.9395C49.781 29.877 50.057 30.5156 50.607 30.8555C50.971 31.0781 51.691 31.2305 52.77 31.3125V31.8047H44.086V31.3125ZM49.781 20.3262C49.781 21.1582 50.197 21.8613 51.029 22.4355C51.779 22.9512 52.588 23.209 53.455 23.209C54.955 23.209 56.104 22.418 56.9 20.8359C57.521 19.5938 57.832 18.1406 57.832 16.4766C57.832 14.6953 57.533 13.1895 56.936 11.959C56.15 10.3418 54.961 9.53316 53.367 9.53316C52.359 9.53316 51.393 9.92576 50.467 10.7109C50.139 10.9922 49.939 11.2207 49.869 11.3965C49.811 11.5605 49.781 11.8711 49.781 12.3281V20.3262ZM66.111 23.4902C67.096 23.4785 67.746 23.3848 68.062 23.209C68.543 22.9395 68.783 22.3652 68.783 21.4863V9.60346C68.783 9.09956 68.473 8.84766 67.852 8.84766C65.227 8.84766 63.715 10.3828 63.316 13.4531H62.49L62.771 7.86326H77.818L78.1 13.4531H77.273C76.887 10.3828 75.363 8.84766 72.703 8.84766C72.105 8.84766 71.807 9.09956 71.807 9.60346V21.4863C71.807 22.3652 72.047 22.9395 72.527 23.209C72.844 23.3848 73.494 23.4785 74.479 23.4902V24H66.111V23.4902ZM88.77 13.5234C88.734 11.6484 88.588 10.3418 88.33 9.60346C88.037 8.75976 87.328 8.33786 86.203 8.33786C84.527 8.33786 83.689 8.86516 83.689 9.91986C83.689 10.084 83.701 10.3301 83.725 10.6582C83.748 10.9863 83.76 11.2324 83.76 11.3965C83.76 11.8418 83.596 12.2227 83.268 12.5391C82.939 12.8555 82.553 13.0137 82.107 13.0137C81.076 13.0137 80.561 12.5332 80.561 11.5723C80.561 10.2129 81.293 9.15816 82.758 8.40816C83.93 7.81046 85.26 7.51166 86.748 7.51166C88.752 7.51166 90.129 8.04486 90.879 9.11126C91.512 10.0137 91.828 11.5195 91.828 13.6289V21.2227C91.828 21.9727 92.092 22.3477 92.619 22.3477C93.018 22.3477 93.639 22.0723 94.482 21.5215V22.4531C93.322 23.7188 92.291 24.3516 91.389 24.3516C89.865 24.3516 89.051 23.4434 88.945 21.627C87.855 22.541 86.988 23.1738 86.344 23.5254C85.336 24.0762 84.428 24.3516 83.619 24.3516C82.576 24.3516 81.697 23.9824 80.982 23.2441C80.268 22.4941 79.91 21.5918 79.91 20.5371C79.91 18.9082 80.795 17.4961 82.564 16.3008C83.561 15.6211 85.16 14.877 87.363 14.0684C87.738 13.9277 88.207 13.7461 88.77 13.5234ZM88.77 14.4902C88.57 14.5723 88.184 14.7188 87.609 14.9297C85.898 15.5391 84.744 16.125 84.146 16.6875C83.432 17.3555 83.074 18.2227 83.074 19.2891C83.074 20.0859 83.268 20.7598 83.654 21.3105C84.088 21.9316 84.686 22.2422 85.447 22.2422C85.998 22.2422 86.613 22.0898 87.293 21.7852C87.973 21.4688 88.465 21.0938 88.77 20.6602V14.4902ZM112.096 8.37296C111.182 8.39646 110.572 8.51366 110.268 8.72456C109.881 8.99406 109.688 9.55076 109.688 10.3945V21.4863C109.688 22.3301 109.881 22.8867 110.268 23.1562C110.572 23.3672 111.182 23.4785 112.096 23.4902V24H104.15V23.4902C105.076 23.4785 105.703 23.3672 106.031 23.1562C106.477 22.875 106.699 22.3184 106.699 21.4863V10.9395C106.699 10.0605 106.477 9.49216 106.031 9.23436C105.715 9.04686 105.076 8.95306 104.115 8.95306C103.26 8.95306 102.645 9.11716 102.27 9.44526C101.906 9.77336 101.684 10.3535 101.602 11.1855C101.531 11.8066 101.49 12.7676 101.479 14.0684C101.455 16.0723 101.408 17.4551 101.338 18.2168C101.197 19.7754 100.922 21.1289 100.512 22.2773C100.008 23.6602 99.082 24.3516 97.734 24.3516C96.973 24.3516 96.328 24.1582 95.801 23.7715C95.215 23.3379 94.922 22.752 94.922 22.0137C94.922 20.9355 95.414 20.3965 96.398 20.3965C97.125 20.3965 97.629 20.8652 97.91 21.8027C98.074 22.377 98.303 22.6641 98.596 22.6641C99.686 22.6641 100.23 19.5586 100.23 13.3477V11.9766C100.23 10.6172 100.125 9.74406 99.914 9.35736C99.574 8.73626 98.766 8.40816 97.488 8.37296V7.86326H112.096V8.37296Z" fill="white"/>
</svg>
