<svg width="131" height="7" viewBox="0 0 131 7" fill="none" xmlns="http://www.w3.org/2000/svg">
<path d="M0.209961 6.88976V0.103758H0.859961V3.19776H5.46196V0.103758H6.11196V6.88976H5.46196V3.76976H0.859961V6.88976H0.209961Z" fill="#FBAE41"/>
<path d="M13.6769 6.88976V5.34276L13.6509 5.10876V2.56076C13.6509 1.92809 13.4776 1.44709 13.1309 1.11776C12.7929 0.788424 12.2946 0.623758 11.6359 0.623758C11.1679 0.623758 10.7303 0.706091 10.3229 0.870758C9.92428 1.02676 9.58195 1.23042 9.29595 1.48176L8.97095 1.01376C9.30895 0.710425 9.71628 0.476424 10.1929 0.311758C10.6696 0.138424 11.1679 0.0517578 11.6879 0.0517578C12.5286 0.0517578 13.1743 0.264091 13.6249 0.688758C14.0756 1.11342 14.3009 1.74609 14.3009 2.58676V6.88976H13.6769ZM11.2329 6.94176C10.7303 6.94176 10.2926 6.86376 9.91995 6.70776C9.55595 6.54309 9.27428 6.31342 9.07495 6.01876C8.88428 5.72409 8.78895 5.38609 8.78895 5.00476C8.78895 4.65809 8.86695 4.34609 9.02295 4.06876C9.18761 3.78276 9.45628 3.55309 9.82895 3.37976C10.2016 3.19776 10.6999 3.10676 11.3239 3.10676H13.8199V3.61376H11.3369C10.6349 3.61376 10.1409 3.74376 9.85495 4.00376C9.57761 4.26376 9.43895 4.58876 9.43895 4.97876C9.43895 5.41209 9.60361 5.75876 9.93295 6.01876C10.2623 6.27876 10.7259 6.40876 11.3239 6.40876C11.8959 6.40876 12.3769 6.27876 12.7669 6.01876C13.1656 5.75876 13.4603 5.38176 13.6509 4.88776L13.8329 5.32976C13.6509 5.82376 13.3389 6.21809 12.8969 6.51276C12.4636 6.79876 11.9089 6.94176 11.2329 6.94176Z" fill="#FBAE41"/>
<path d="M18.6969 6.88976V0.493758L18.8789 0.688758H16.0449V0.103758H21.9989V0.688758H19.1649L19.3469 0.493758V6.88976H18.6969Z" fill="#FBAE41"/>
<path d="M28.1525 6.88976V4.39376L28.2955 4.54976H25.8905C25.0412 4.54976 24.3782 4.36776 23.9015 4.00376C23.4335 3.63109 23.1995 3.08509 23.1995 2.36576C23.1995 1.60309 23.4552 1.03542 23.9665 0.662758C24.4779 0.290091 25.1539 0.103758 25.9945 0.103758H28.7505V6.88976H28.1525ZM23.1605 6.88976L25.0455 4.27676H25.7345L23.8755 6.88976H23.1605ZM28.1525 4.21176V0.480758L28.2955 0.675758H26.0335C25.3402 0.675758 24.8029 0.810091 24.4215 1.07876C24.0402 1.34742 23.8495 1.78509 23.8495 2.39176C23.8495 3.50109 24.5515 4.05576 25.9555 4.05576H28.2955L28.1525 4.21176Z" fill="#FBAE41"/>
<path d="M40.0942 6.88976L37.6502 3.49676L38.1962 3.18476L40.8742 6.88976H40.0942ZM36.0122 3.74376V3.18476H38.1182V3.74376H36.0122ZM38.2482 3.56176L37.6372 3.45776L39.9642 0.103758H40.6792L38.2482 3.56176ZM31.7352 6.88976H30.9422L33.6332 3.18476L34.1792 3.49676L31.7352 6.88976ZM36.2332 6.88976H35.5832V0.103758H36.2332V6.88976ZM35.7912 3.74376H33.6982V3.18476H35.7912V3.74376ZM33.5812 3.56176L31.1502 0.103758H31.8652L34.1922 3.45776L33.5812 3.56176Z" fill="#FBAE41"/>
<path d="M43.0795 6.88976V0.103758H43.7295V3.19776H48.3315V0.103758H48.9815V6.88976H48.3315V3.76976H43.7295V6.88976H43.0795Z" fill="#FBAE41"/>
<path d="M58.8215 6.88976V0.103758H59.4715V6.88976H58.8215ZM54.9865 2.57376C55.8358 2.58242 56.4771 2.76876 56.9105 3.13276C57.3525 3.48809 57.5735 4.01242 57.5735 4.70576C57.5735 5.42509 57.3395 5.97542 56.8715 6.35676C56.4035 6.73809 55.7275 6.92442 54.8435 6.91576L52.3085 6.88976V0.103758H52.9585V2.54776L54.9865 2.57376ZM54.8175 6.39576C55.5108 6.40442 56.0351 6.26576 56.3905 5.97976C56.7458 5.69376 56.9235 5.26909 56.9235 4.70576C56.9235 4.15976 56.7458 3.75242 56.3905 3.48376C56.0438 3.21509 55.5195 3.07642 54.8175 3.06776L52.9585 3.05476V6.36976L54.8175 6.39576Z" fill="#FBAE41"/>
<path d="M65.5896 6.94176C64.9049 6.94176 64.2983 6.79442 63.7696 6.49976C63.2496 6.20509 62.8379 5.79776 62.5346 5.27776C62.2399 4.75776 62.0926 4.16409 62.0926 3.49676C62.0926 2.82076 62.2313 2.22709 62.5086 1.71576C62.7946 1.19576 63.1846 0.788424 63.6786 0.493758C64.1726 0.199091 64.7273 0.0517578 65.3426 0.0517578C65.9579 0.0517578 66.5083 0.194758 66.9936 0.480758C67.4876 0.766758 67.8733 1.16976 68.1506 1.68976C68.4366 2.20109 68.5796 2.79476 68.5796 3.47076C68.5796 3.49676 68.5753 3.52709 68.5666 3.56176C68.5666 3.58776 68.5666 3.61809 68.5666 3.65276H62.5736V3.14576H68.2156L67.9556 3.39276C67.9643 2.86409 67.8516 2.39176 67.6176 1.97576C67.3923 1.55109 67.0846 1.22176 66.6946 0.987758C66.3046 0.745091 65.8539 0.623758 65.3426 0.623758C64.8399 0.623758 64.3893 0.745091 63.9906 0.987758C63.6006 1.22176 63.2929 1.55109 63.0676 1.97576C62.8423 2.39176 62.7296 2.86842 62.7296 3.40576V3.52276C62.7296 4.07742 62.8509 4.57142 63.0936 5.00476C63.3449 5.42942 63.6873 5.76309 64.1206 6.00576C64.5539 6.23976 65.0479 6.35676 65.6026 6.35676C66.0359 6.35676 66.4389 6.27876 66.8116 6.12276C67.1929 5.96676 67.5136 5.72842 67.7736 5.40776L68.1506 5.83676C67.8559 6.20076 67.4833 6.47809 67.0326 6.66876C66.5906 6.85076 66.1096 6.94176 65.5896 6.94176Z" fill="#FBAE41"/>
<path d="M75.0823 6.88976V0.103758H81.0103V6.88976H80.3603V0.493758L80.5423 0.688758H75.5503L75.7323 0.493758V6.88976H75.0823Z" fill="#FBAE41"/>
<path d="M87.0407 6.94176C86.3907 6.94176 85.81 6.79442 85.2987 6.49976C84.796 6.20509 84.393 5.79776 84.0897 5.27776C83.795 4.75776 83.6477 4.16409 83.6477 3.49676C83.6477 2.82076 83.795 2.22709 84.0897 1.71576C84.393 1.19576 84.796 0.788424 85.2987 0.493758C85.81 0.199091 86.3907 0.0517578 87.0407 0.0517578C87.6907 0.0517578 88.2714 0.199091 88.7827 0.493758C89.294 0.788424 89.697 1.19576 89.9917 1.71576C90.2864 2.22709 90.4337 2.82076 90.4337 3.49676C90.4337 4.16409 90.2864 4.75776 89.9917 5.27776C89.697 5.79776 89.294 6.20509 88.7827 6.49976C88.2714 6.79442 87.6907 6.94176 87.0407 6.94176ZM87.0407 6.35676C87.5607 6.35676 88.0287 6.23976 88.4447 6.00576C88.8607 5.76309 89.1857 5.42509 89.4197 4.99176C89.6537 4.55842 89.7707 4.06009 89.7707 3.49676C89.7707 2.92476 89.6537 2.42642 89.4197 2.00176C89.1857 1.56842 88.8607 1.23476 88.4447 1.00076C88.0287 0.758091 87.5607 0.636758 87.0407 0.636758C86.5207 0.636758 86.0527 0.758091 85.6367 1.00076C85.2294 1.23476 84.9044 1.56842 84.6617 2.00176C84.4277 2.42642 84.3107 2.92476 84.3107 3.49676C84.3107 4.06009 84.4277 4.55842 84.6617 4.99176C84.9044 5.42509 85.2294 5.76309 85.6367 6.00576C86.0527 6.23976 86.5207 6.35676 87.0407 6.35676Z" fill="#FBAE41"/>
<path d="M94.0517 6.88976V0.493758L94.2337 0.688758H91.3997V0.103758H97.3537V0.688758H94.5197L94.7017 0.493758V6.88976H94.0517Z" fill="#FBAE41"/>
<path d="M101.652 6.94176C101.002 6.94176 100.421 6.79442 99.91 6.49976C99.4073 6.20509 99.0043 5.79776 98.701 5.27776C98.4063 4.75776 98.259 4.16409 98.259 3.49676C98.259 2.82076 98.4063 2.22709 98.701 1.71576C99.0043 1.19576 99.4073 0.788424 99.91 0.493758C100.421 0.199091 101.002 0.0517578 101.652 0.0517578C102.302 0.0517578 102.883 0.199091 103.394 0.493758C103.905 0.788424 104.308 1.19576 104.603 1.71576C104.898 2.22709 105.045 2.82076 105.045 3.49676C105.045 4.16409 104.898 4.75776 104.603 5.27776C104.308 5.79776 103.905 6.20509 103.394 6.49976C102.883 6.79442 102.302 6.94176 101.652 6.94176ZM101.652 6.35676C102.172 6.35676 102.64 6.23976 103.056 6.00576C103.472 5.76309 103.797 5.42509 104.031 4.99176C104.265 4.55842 104.382 4.06009 104.382 3.49676C104.382 2.92476 104.265 2.42642 104.031 2.00176C103.797 1.56842 103.472 1.23476 103.056 1.00076C102.64 0.758091 102.172 0.636758 101.652 0.636758C101.132 0.636758 100.664 0.758091 100.248 1.00076C99.8407 1.23476 99.5157 1.56842 99.273 2.00176C99.039 2.42642 98.922 2.92476 98.922 3.49676C98.922 4.06009 99.039 4.55842 99.273 4.99176C99.5157 5.42509 99.8407 5.76309 100.248 6.00576C100.664 6.23976 101.132 6.35676 101.652 6.35676Z" fill="#FBAE41"/>
<path d="M106.317 6.86376L106.382 6.30476C106.434 6.31342 106.486 6.32642 106.538 6.34376C106.599 6.35242 106.651 6.35676 106.694 6.35676C106.989 6.35676 107.223 6.24842 107.396 6.03176C107.57 5.80642 107.7 5.50742 107.786 5.13476C107.882 4.76209 107.947 4.34176 107.981 3.87376C108.025 3.40576 108.059 2.92909 108.085 2.44376L108.202 0.103758H112.96V6.88976H112.31V0.480758L112.492 0.688758H108.618L108.787 0.467758L108.683 2.49576C108.649 3.08509 108.601 3.64842 108.54 4.18576C108.48 4.72309 108.389 5.19976 108.267 5.61576C108.146 6.03176 107.973 6.36109 107.747 6.60376C107.522 6.83776 107.232 6.95476 106.876 6.95476C106.79 6.95476 106.699 6.94609 106.603 6.92876C106.517 6.91142 106.421 6.88976 106.317 6.86376Z" fill="#FBAE41"/>
<path d="M121.294 6.88976L118.382 3.49676L118.928 3.18476L122.074 6.88976H121.294ZM116.289 6.88976V0.103758H116.939V6.88976H116.289ZM116.731 3.74376V3.18476H118.863V3.74376H116.731ZM118.967 3.56176L118.369 3.45776L121.151 0.103758H121.866L118.967 3.56176Z" fill="#FBAE41"/>
<path d="M124.197 6.88976V0.103758H124.847V5.88876L129.683 0.103758H130.255V6.88976H129.605V1.10476L124.769 6.88976H124.197Z" fill="#FBAE41"/>
</svg>
