<svg width="168" height="187" viewBox="0 0 168 187" fill="none" xmlns="http://www.w3.org/2000/svg">
<g filter="url(#filter0_d_591_918)">
<path d="M153.971 16.9074C154.04 15.805 153.203 14.8552 152.1 14.7859C150.998 14.7166 150.048 15.5541 149.979 16.6565L153.971 16.9074ZM15.0032 157.89C14.3274 158.764 14.4878 160.02 15.3615 160.696L29.5989 171.709C30.4725 172.385 31.7287 172.225 32.4045 171.351C33.0804 170.477 32.92 169.221 32.0463 168.545L19.3908 158.756L29.1806 146.1C29.8564 145.226 29.696 143.97 28.8223 143.295C27.9486 142.619 26.6925 142.779 26.0167 143.653L15.0032 157.89ZM90.2372 64.3108C96.2258 71.8313 98.9082 79.2553 99.3247 86.3623C99.7424 93.4893 97.889 100.443 94.573 107.006C87.9155 120.181 75.49 131.522 64.6358 138.949L66.8944 142.25C78.0266 134.634 91.0591 122.829 98.1431 108.809C101.698 101.774 103.786 94.1176 103.318 86.1282C102.848 78.1188 99.8174 69.9204 93.3663 61.8191L90.2372 64.3108ZM64.6358 138.949C53.8828 146.306 41.8091 150.86 32.377 153.576C27.6699 154.931 23.6424 155.822 20.7973 156.373C19.3752 156.648 18.2499 156.839 17.4843 156.96C17.1016 157.02 16.8089 157.063 16.6142 157.091C16.5168 157.105 16.444 157.115 16.3966 157.121C16.3729 157.125 16.3556 157.127 16.3447 157.128C16.3393 157.129 16.3355 157.129 16.3334 157.13C16.3323 157.13 16.3316 157.13 16.3314 157.13C16.3313 157.13 16.3314 157.13 16.3313 157.13C16.3315 157.13 16.3319 157.13 16.5852 159.114C16.8385 161.098 16.839 161.098 16.8396 161.098C16.84 161.098 16.8407 161.097 16.8414 161.097C16.8428 161.097 16.8446 161.097 16.8469 161.097C16.8513 161.096 16.8574 161.095 16.8652 161.094C16.8807 161.092 16.9027 161.089 16.9311 161.085C16.988 161.078 17.0705 161.066 17.1777 161.051C17.392 161.021 17.705 160.975 18.1088 160.911C18.9163 160.783 20.0873 160.585 21.5581 160.3C24.4989 159.73 28.6439 158.813 33.4835 157.419C43.1448 154.638 55.6611 149.936 66.8944 142.25L64.6358 138.949ZM151.975 16.7819C149.979 16.6565 149.979 16.6563 149.979 16.6565C149.979 16.6571 149.979 16.6577 149.978 16.6589C149.978 16.6612 149.978 16.665 149.978 16.6704C149.977 16.6811 149.976 16.698 149.974 16.7207C149.971 16.7663 149.967 16.8356 149.96 16.928C149.947 17.1127 149.926 17.3894 149.896 17.7515C149.836 18.4757 149.741 19.5411 149.6 20.8944C149.317 23.6017 148.85 27.4584 148.111 32.0401C146.631 41.2158 144.072 53.2427 139.76 64.7535C135.435 76.2985 129.421 87.1191 121.15 94.0928C112.991 100.972 102.53 104.209 88.8566 100.479L87.8039 104.338C102.771 108.421 114.585 104.861 123.729 97.1508C132.762 89.5344 139.079 77.9717 143.505 66.1567C147.944 54.3076 150.556 41.9979 152.06 32.677C152.812 28.0104 153.289 24.0788 153.579 21.3098C153.723 19.9251 153.821 18.8303 153.882 18.079C153.913 17.7033 153.935 17.4133 153.949 17.2159C153.957 17.1171 153.962 17.0415 153.965 16.9898C153.967 16.964 153.968 16.9441 153.969 16.9304C153.97 16.9235 153.97 16.9181 153.97 16.9143C153.97 16.9124 153.971 16.9106 153.971 16.9097C153.971 16.9084 153.971 16.9074 151.975 16.7819ZM88.8566 100.479C74.8574 96.6604 66.8618 90.5249 62.9034 84.2129C58.9571 77.9202 58.8843 71.2468 61.1021 65.9309C63.3388 60.5696 67.8529 56.6785 73.04 55.8064C78.1283 54.951 84.3584 56.9281 90.2372 64.3108L93.3663 61.8191C86.8056 53.58 79.222 50.7109 72.3768 51.8618C65.6307 52.996 60.0918 57.9638 57.4105 64.3907C54.7103 70.863 54.8545 78.9071 59.5147 86.3381C64.1628 93.7499 73.1631 100.344 87.8039 104.338L88.8566 100.479Z" fill="url(#paint0_linear_591_918)"/>
</g>
<defs>
<filter id="filter0_d_591_918" x="0.584961" y="0.781982" width="167.39" height="185.345" filterUnits="userSpaceOnUse" color-interpolation-filters="sRGB">
<feFlood flood-opacity="0" result="BackgroundImageFix"/>
<feColorMatrix in="SourceAlpha" type="matrix" values="0 0 0 0 0 0 0 0 0 0 0 0 0 0 0 0 0 0 127 0" result="hardAlpha"/>
<feOffset/>
<feGaussianBlur stdDeviation="7"/>
<feComposite in2="hardAlpha" operator="out"/>
<feColorMatrix type="matrix" values="0 0 0 0 0.996078 0 0 0 0 0.776471 0 0 0 0 0.25098 0 0 0 0.2 0"/>
<feBlend mode="normal" in2="BackgroundImageFix" result="effect1_dropShadow_591_918"/>
<feBlend mode="normal" in="SourceGraphic" in2="effect1_dropShadow_591_918" result="shape"/>
</filter>
<linearGradient id="paint0_linear_591_918" x1="102.682" y1="8.69727" x2="-35.7304" y2="73.1943" gradientUnits="userSpaceOnUse">
<stop stop-color="#FEDA82"/>
<stop offset="1" stop-color="#FEC338"/>
</linearGradient>
</defs>
</svg>
